<?xml version="1.0" encoding="UTF-8" standalone="no"?><!DOCTYPE svg PUBLIC "-//W3C//DTD SVG 1.1//EN" "http://www.w3.org/Graphics/SVG/1.1/DTD/svg11.dtd"><svg width="100%" height="100%" viewBox="0 0 43850 14963" version="1.1" xmlns="http://www.w3.org/2000/svg" xmlns:xlink="http://www.w3.org/1999/xlink" xml:space="preserve" xmlns:serif="http://www.serif.com/" style="fill-rule:evenodd;clip-rule:evenodd;stroke-linejoin:round;stroke-miterlimit:2;"><g><g id="ENLIT-BOOK-LOGO-DARK" serif:id="ENLIT BOOK LOGO DARK"><g id="ghostPAGES"><path d="M8383.46,14182.886c-2163.373,-1402.625 -5732.45,-2165.751 -7432.27,-1915.261l-47.72,-11572.308c2486.845,38.168 4973.652,541.915 7460.497,1694.09l11.696,5898.689l7.797,5894.791Z" style="fill:#202020;fill-opacity:0.5;fill-rule:nonzero;"/><g><path d="M6995.455,13585.61c-3589.74,-674.821 -4472.243,-531.935 -6987.081,-267.371l-8.382,-10832.652l782.346,1.52l-1.754,9944.223c510.102,-170.723 3999.53,13.84 6214.871,1154.28Z" style="fill:#202020;fill-opacity:0.5;fill-rule:nonzero;"/></g></g><g id="E-L-logo" serif:id="E&amp;L logo"><g><path d="M11093.037,12720.918l3.314,-1578.962l7384.668,50.683l0,1411.319l-7387.982,116.96Z" style="fill:#534ab7;fill-rule:nonzero;"/></g><path d="M8774.419,14182.919l2.378,-11752.31l772.561,-141.015l3.392,10999.009c0,0 3509.116,-240.197 5283.011,-263.589c1598.455,-19.493 4580.938,116.96 4580.938,116.96l0,-11524.471c0,0 -5911.555,369.945 -8261.284,791.43c0,0 -42.885,1664.733 -50.683,5165.739l-11.696,5146.246l-538.017,35.088c-296.299,15.595 -545.814,23.392 -553.611,19.493c-7.797,-7.797 -27.291,-2385.987 -42.885,-5278.801l-17.154,-5280.633c3174.844,-674.002 8509.395,-870.144 9743.676,-891.899l-6.823,12261.476c-185.031,0 -3964.792,-102.964 -6109.529,51.462c-1742.667,125.498 -4794.274,545.814 -4794.274,545.814Z" style="fill:#202020;fill-rule:nonzero;"/><g><path d="M12905.919,8303.723l0,-311.894l343.083,-23.392c974.668,-70.176 3598.473,-179.339 4269.045,-179.339l417.158,0l0,311.894l-378.171,0c-810.924,0 -3594.575,116.96 -4366.512,179.339l-284.603,23.392Z" style="fill:#202020;fill-rule:nonzero;"/></g><path d="M12905.919,5340.733l0,-311.894l343.083,-23.392c974.668,-70.176 3598.473,-179.339 4269.045,-179.339l417.158,0l0,311.894l-378.171,0c-810.924,0 -3594.575,116.96 -4366.512,179.339l-284.603,23.392Z" style="fill:#202020;fill-rule:nonzero;"/></g><g id="labe-" serif:id="labe;"><g><path d="M22355.356,6665.829l0,-5341.663l3862.314,0l0,630.358l-3155.442,0l0,1636.02l2955.042,0l0,626.72l-2955.042,0l0,1818.199l3279.328,0l0,630.365l-3986.2,0Z" style="fill:#202020;fill-rule:nonzero;"/><path d="M27234.264,6665.829l0,-3869.608l590.28,0l0,550.201c284.208,-425.102 694.733,-637.653 1231.57,-637.653c233.197,0 447.563,41.907 643.113,125.708c195.543,83.808 341.897,193.727 439.063,329.759c97.165,136.031 165.184,297.565 204.05,484.607c24.29,121.461 36.435,334.006 36.435,637.646l0,2379.339l-655.867,0l0,-2353.83c0,-267.206 -25.502,-467.003 -76.513,-599.39c-51.017,-132.387 -141.497,-238.053 -271.459,-316.998c-129.956,-78.951 -282.385,-118.42 -457.283,-118.42c-279.351,0 -520.439,88.664 -723.276,265.987c-202.831,177.329 -304.244,513.76 -304.244,1009.306l0,2113.345l-655.867,0Z" style="fill:#202020;fill-rule:nonzero;"/><path d="M31439.09,6665.829l0,-5341.663l706.878,0l0,4711.298l2630.75,0l0,630.365l-3337.627,0Z" style="fill:#202020;fill-rule:nonzero;"/><path d="M35538.244,2078.411l0,-754.245l655.867,0l0,754.245l-655.867,0Zm0,4587.418l0,-3869.608l655.867,0l0,3869.608l-655.867,0Z" style="fill:#202020;fill-rule:nonzero;"/><path d="M38624.461,6079.194l94.734,579.347c-184.617,38.866 -349.795,58.299 -495.546,58.299c-238.053,0 -422.664,-37.653 -553.839,-112.954c-131.175,-75.307 -223.483,-174.294 -276.919,-296.962c-53.442,-122.674 -80.164,-380.77 -80.164,-774.287l0,-2226.3l-480.969,0l0,-510.116l480.969,0l0,-958.295l652.223,-393.518l0,1351.813l659.511,0l0,510.116l-659.511,0l0,2262.734c0,187.049 11.535,307.285 34.613,360.727c23.077,53.442 60.731,95.953 112.954,127.531c52.23,31.578 126.921,47.367 224.086,47.367c72.875,0 168.828,-8.501 287.858,-25.502Z" style="fill:#202020;fill-rule:nonzero;"/></g><g><path d="M21961.832,10517.359l0,-1780.552l1287.444,0l0,210.119l-1051.816,0l0,545.338l985.01,0l0,208.907l-985.01,0l0,606.069l1093.107,0l0,210.119l-1328.735,0Z" style="fill:#202020;fill-rule:nonzero;"/><path d="M23588.139,10517.359l0,-1289.869l196.756,0l0,183.398c94.74,-141.696 231.58,-212.551 410.525,-212.551c77.732,0 149.19,13.967 214.373,41.907c65.177,27.934 113.968,64.574 146.354,109.913c32.386,45.346 55.059,99.192 68.013,161.54c8.097,40.483 12.145,111.337 12.145,212.551l0,793.111l-218.62,0l0,-784.61c0,-89.069 -8.501,-155.67 -25.502,-199.797c-17.008,-44.127 -47.168,-79.349 -90.486,-105.666c-43.319,-26.317 -94.131,-39.476 -152.43,-39.476c-93.117,0 -173.48,29.557 -241.088,88.664c-67.615,59.108 -101.419,171.253 -101.419,336.431l0,704.453l-218.62,0Z" style="fill:#202020;fill-rule:nonzero;"/><path d="M24931.444,10624.238l212.551,31.578c8.905,65.587 33.605,113.358 74.088,143.32c54.251,40.489 128.339,60.731 222.264,60.731c101.214,0 179.356,-20.241 234.415,-60.731c55.059,-40.483 92.302,-97.165 111.735,-170.041c11.336,-44.531 16.604,-138.052 15.789,-280.563c-95.542,112.55 -214.572,168.828 -357.077,168.828c-177.329,0 -314.573,-63.97 -411.738,-191.905c-97.165,-127.935 -145.751,-281.372 -145.751,-460.318c0,-123.078 22.269,-236.635 66.8,-340.685c44.537,-104.049 109.111,-184.412 193.727,-241.094c84.61,-56.676 184.008,-85.02 298.174,-85.02c152.225,0 277.728,61.539 376.516,184.617l0,-155.464l201.619,0l0,1114.972c0,200.804 -20.447,343.11 -61.34,426.918c-40.887,83.808 -105.666,149.998 -194.33,198.584c-88.658,48.58 -197.769,72.869 -327.321,72.869c-153.848,0 -278.138,-34.613 -372.872,-103.844c-94.74,-69.231 -140.484,-173.48 -137.25,-312.751Zm180.973,-774.89c0,169.226 33.605,292.708 100.809,370.441c67.204,77.732 151.416,116.598 252.63,116.598c100.405,0 184.611,-38.661 252.63,-115.989c68.013,-77.328 102.022,-198.584 102.022,-363.762c0,-157.896 -35.017,-276.926 -105.057,-357.083c-70.04,-80.164 -154.457,-120.242 -253.239,-120.242c-97.165,0 -179.754,39.476 -247.773,118.42c-68.013,78.945 -102.022,196.153 -102.022,351.617Z" style="fill:#202020;fill-rule:nonzero;"/><rect x="26350.057" y="8736.807" width="218.62" height="1780.552" style="fill:#202020;"/><path d="M26908.758,8988.217l0,-251.411l218.62,0l0,251.411l-218.62,0Zm0,1529.141l0,-1289.869l218.62,0l0,1289.869l-218.62,0Z" style="fill:#202020;fill-rule:nonzero;"/><path d="M27372.726,10132.342l216.189,-34.009c12.145,86.637 45.955,153.033 101.419,199.187c55.463,46.154 132.99,69.231 232.587,69.231c100.405,0 174.897,-20.447 223.483,-61.334c48.58,-40.893 72.869,-88.87 72.869,-143.929c0,-49.394 -21.454,-88.26 -64.368,-116.598c-29.961,-19.433 -104.453,-44.127 -223.483,-74.088c-160.321,-40.483 -271.453,-75.506 -333.396,-105.057c-61.943,-29.557 -108.906,-70.45 -140.888,-122.674c-31.982,-52.224 -47.976,-109.92 -47.976,-173.075c0,-57.491 13.159,-110.728 39.476,-159.718c26.311,-48.984 62.142,-89.672 107.488,-122.064c34.003,-25.098 80.363,-46.353 139.066,-63.759c58.703,-17.412 121.66,-26.118 188.864,-26.118c101.214,0 190.083,14.576 266.597,43.729c76.52,29.146 132.997,68.622 169.431,118.42c36.441,49.792 61.539,116.393 75.307,199.79l-213.764,29.153c-9.72,-66.396 -37.859,-118.215 -84.417,-155.464c-46.558,-37.249 -112.345,-55.868 -197.365,-55.868c-100.405,0 -172.062,16.597 -214.976,49.792c-42.914,33.201 -64.375,72.067 -64.375,116.598c0,28.344 8.911,53.847 26.721,76.52c17.816,23.481 45.75,42.914 83.808,58.299c21.858,8.097 86.233,26.721 193.112,55.868c154.656,41.298 262.548,75.102 323.683,101.419c61.135,26.317 109.111,64.574 143.929,114.776c34.818,50.203 52.224,112.55 52.224,187.042c0,72.875 -21.255,141.497 -63.765,205.872c-42.51,64.368 -103.844,114.167 -184.008,149.389c-80.157,35.222 -170.849,52.833 -272.063,52.833c-167.609,0 -295.339,-34.818 -383.195,-104.453c-87.85,-69.636 -143.923,-172.87 -168.212,-309.71Z" style="fill:#202020;fill-rule:nonzero;"/><path d="M28703.887,10517.359l0,-1780.552l218.62,0l0,638.859c102.028,-118.215 230.771,-177.329 386.236,-177.329c95.542,0 178.542,18.83 248.986,56.477c70.444,37.653 120.846,89.678 151.211,156.074c30.365,66.396 45.545,162.753 45.545,289.064l0,817.407l-218.62,0l0,-817.407c0,-109.31 -23.68,-188.864 -71.053,-238.663c-47.367,-49.792 -114.372,-74.691 -201.009,-74.691c-64.779,0 -125.708,16.803 -182.789,50.402c-57.087,33.605 -97.775,79.15 -122.064,136.641c-24.296,57.491 -36.441,136.84 -36.441,238.053l0,705.665l-218.62,0Z" style="fill:#202020;fill-rule:nonzero;"/><rect x="30773.51" y="8736.807" width="218.62" height="1780.552" style="fill:#202020;"/><path d="M31332.205,8988.217l0,-251.411l218.626,0l0,251.411l-218.626,0Zm0,1529.141l0,-1289.869l218.626,0l0,1289.869l-218.626,0Z" style="fill:#202020;fill-rule:nonzero;"/><path d="M32360.944,10321.81l31.578,193.118c-61.539,12.953 -116.598,19.433 -165.178,19.433c-79.355,0 -140.894,-12.549 -184.617,-37.653c-43.723,-25.098 -74.492,-58.094 -92.309,-98.987c-17.81,-40.887 -26.721,-126.921 -26.721,-258.09l0,-742.1l-160.321,0l0,-170.041l160.321,0l0,-319.43l217.408,-131.175l0,450.604l219.839,0l0,170.041l-219.839,0l0,754.245c0,62.347 3.849,102.426 11.542,120.242c7.692,17.81 20.241,31.982 37.653,42.51c17.406,10.522 42.305,15.789 74.691,15.789c24.296,0 56.278,-2.836 95.953,-8.507Z" style="fill:#202020;fill-rule:nonzero;"/><path d="M33457.695,10101.977l225.908,27.934c-35.626,131.983 -101.618,234.409 -197.975,307.285c-96.351,72.875 -219.429,109.31 -369.228,109.31c-188.659,0 -338.253,-58.094 -448.782,-174.288c-110.523,-116.194 -165.787,-279.146 -165.787,-488.861c0,-217.003 55.874,-385.427 167.609,-505.259c111.742,-119.838 256.678,-179.76 434.815,-179.76c172.472,0 313.36,58.703 422.67,176.116c109.31,117.407 163.965,282.584 163.965,495.54c0,12.953 -0.404,32.386 -1.213,58.299l-961.939,0c8.097,141.703 48.182,250.204 120.242,325.505c72.067,75.301 161.944,112.954 269.637,112.954c80.157,0 148.58,-21.05 205.257,-63.156c56.682,-42.106 101.624,-109.31 134.819,-201.619Zm-717.81,-353.439l720.242,0c-9.72,-108.502 -37.249,-189.878 -82.589,-244.129c-69.636,-84.212 -159.923,-126.312 -270.85,-126.312c-100.405,0 -184.816,33.599 -253.239,100.809c-68.417,67.204 -106.275,157.081 -113.564,269.631Z" style="fill:#202020;fill-rule:nonzero;"/><path d="M33955.666,10517.359l0,-1289.869l196.762,0l0,195.543c50.203,-91.494 96.556,-151.82 139.066,-180.967c42.51,-29.153 89.274,-43.729 140.285,-43.729c73.684,0 148.58,23.481 224.696,70.444l-75.307,202.837c-53.442,-31.578 -106.879,-47.373 -160.321,-47.373c-47.771,0 -90.685,14.377 -128.743,43.12c-38.058,28.742 -65.183,68.622 -81.376,119.633c-24.29,77.732 -36.435,162.753 -36.435,255.061l0,675.3l-218.626,0Z" style="fill:#202020;fill-rule:nonzero;"/><path d="M35628.127,10358.25c-80.972,68.821 -158.909,117.407 -233.806,145.745c-74.897,28.344 -155.259,42.51 -241.094,42.51c-141.696,0 -250.602,-34.613 -326.718,-103.844c-76.109,-69.231 -114.167,-157.691 -114.167,-265.384c0,-63.156 14.371,-120.846 43.12,-173.075c28.742,-52.224 66.396,-94.131 112.954,-125.708c46.558,-31.578 98.987,-55.463 157.286,-71.657c42.914,-11.336 107.687,-22.269 194.33,-32.797c176.514,-21.05 306.47,-46.148 389.874,-75.301c0.808,-29.961 1.213,-48.99 1.213,-57.087c0,-89.069 -20.646,-151.82 -61.943,-188.255c-55.868,-49.394 -138.861,-74.088 -248.986,-74.088c-102.83,0 -178.741,18.015 -227.73,54.046c-48.984,36.037 -85.219,99.796 -108.701,191.296l-213.764,-29.146c19.433,-91.5 51.415,-165.389 95.946,-221.661c44.537,-56.272 108.906,-99.597 193.118,-129.956c84.212,-30.365 181.781,-45.551 292.708,-45.551c110.125,0 199.598,12.96 268.419,38.866c68.827,25.913 119.434,58.504 151.82,97.775c32.393,39.27 55.065,88.863 68.019,148.786c7.288,37.243 10.932,104.453 10.932,201.619l0,291.496c0,203.235 4.658,331.78 13.967,385.62c9.309,53.847 27.735,105.467 55.264,154.861l-228.34,0c-22.673,-45.346 -37.249,-98.384 -43.723,-159.108Zm-18.22,-488.258c-79.349,32.386 -198.379,59.922 -357.083,82.589c-89.877,12.96 -153.437,27.53 -190.686,43.729c-37.249,16.193 -65.992,39.874 -86.233,71.047c-20.241,31.174 -30.365,65.793 -30.365,103.85c0,58.299 22.064,106.879 66.197,145.745c44.127,38.866 108.701,58.299 193.721,58.299c84.212,0 159.108,-18.419 224.696,-55.264c65.587,-36.839 113.763,-87.247 144.532,-151.211c23.481,-49.394 35.222,-122.263 35.222,-218.62l0,-80.164Z" style="fill:#202020;fill-rule:nonzero;"/><path d="M36647.147,10321.81l31.578,193.118c-61.539,12.953 -116.598,19.433 -165.184,19.433c-79.349,0 -140.888,-12.549 -184.611,-37.653c-43.723,-25.098 -74.492,-58.094 -92.309,-98.987c-17.81,-40.887 -26.721,-126.921 -26.721,-258.09l0,-742.1l-160.321,0l0,-170.041l160.321,0l0,-319.43l217.408,-131.175l0,450.604l219.839,0l0,170.041l-219.839,0l0,754.245c0,62.347 3.849,102.426 11.542,120.242c7.692,17.81 20.241,31.982 37.647,42.51c17.412,10.522 42.311,15.789 74.698,15.789c24.29,0 56.278,-2.836 95.953,-8.507Z" style="fill:#202020;fill-rule:nonzero;"/><path d="M37706.245,10517.359l0,-189.474c-100.405,145.745 -236.841,218.62 -409.307,218.62c-76.115,0 -147.163,-14.576 -213.154,-43.723c-65.992,-29.153 -114.981,-65.786 -146.964,-109.92c-31.982,-44.127 -54.456,-98.179 -67.409,-162.143c-8.905,-42.914 -13.357,-110.933 -13.357,-204.05l0,-799.18l218.62,0l0,715.379c0,114.167 4.452,191.091 13.357,230.765c13.768,57.491 42.914,102.631 87.452,135.428c44.531,32.791 99.59,49.189 165.178,49.189c65.587,0 127.126,-16.803 184.617,-50.408c57.491,-33.599 98.179,-79.349 122.064,-137.244c23.886,-57.895 35.825,-141.902 35.825,-252.02l0,-691.089l218.626,0l0,1289.869l-195.549,0Z" style="fill:#202020;fill-rule:nonzero;"/><path d="M38241.869,10517.359l0,-1289.869l196.762,0l0,195.543c50.203,-91.494 96.556,-151.82 139.066,-180.967c42.51,-29.153 89.268,-43.729 140.285,-43.729c73.684,0 148.58,23.481 224.69,70.444l-75.301,202.837c-53.442,-31.578 -106.879,-47.373 -160.321,-47.373c-47.771,0 -90.692,14.377 -128.743,43.12c-38.058,28.742 -65.183,68.622 -81.376,119.633c-24.296,77.732 -36.441,162.753 -36.441,255.061l0,675.3l-218.62,0Z" style="fill:#202020;fill-rule:nonzero;"/><path d="M39955.621,10101.977l225.908,27.934c-35.626,131.983 -101.618,234.409 -197.975,307.285c-96.357,72.875 -219.429,109.31 -369.228,109.31c-188.659,0 -338.253,-58.094 -448.782,-174.288c-110.523,-116.194 -165.787,-279.146 -165.787,-488.861c0,-217.003 55.868,-385.427 167.609,-505.259c111.742,-119.838 256.678,-179.76 434.815,-179.76c172.466,0 313.36,58.703 422.67,176.116c109.31,117.407 163.965,282.584 163.965,495.54c0,12.953 -0.404,32.386 -1.213,58.299l-961.939,0c8.097,141.703 48.182,250.204 120.242,325.505c72.067,75.301 161.944,112.954 269.637,112.954c80.157,0 148.58,-21.05 205.257,-63.156c56.682,-42.106 101.624,-109.31 134.819,-201.619Zm-717.81,-353.439l720.242,0c-9.72,-108.502 -37.249,-189.878 -82.595,-244.129c-69.629,-84.212 -159.917,-126.312 -270.844,-126.312c-100.405,0 -184.816,33.599 -253.239,100.809c-68.423,67.204 -106.275,157.081 -113.564,269.631Z" style="fill:#202020;fill-rule:nonzero;"/><path d="M22812.03,13273.208l225.908,27.934c-35.626,131.983 -101.618,234.409 -197.975,307.285c-96.351,72.875 -219.429,109.31 -369.228,109.31c-188.659,0 -338.253,-58.094 -448.782,-174.288c-110.523,-116.194 -165.787,-279.152 -165.787,-488.861c0,-217.003 55.874,-385.427 167.609,-505.259c111.742,-119.838 256.678,-179.76 434.815,-179.76c172.472,0 313.36,58.703 422.67,176.116c109.31,117.407 163.965,282.584 163.965,495.54c0,12.953 -0.404,32.386 -1.213,58.299l-961.939,0c8.097,141.703 48.182,250.198 120.242,325.505c72.067,75.301 161.944,112.954 269.637,112.954c80.157,0 148.58,-21.056 205.257,-63.156c56.682,-42.106 101.624,-109.31 134.819,-201.619Zm-717.81,-353.439l720.242,0c-9.72,-108.502 -37.249,-189.878 -82.595,-244.129c-69.629,-84.212 -159.917,-126.312 -270.844,-126.312c-100.405,0 -184.816,33.599 -253.239,100.803c-68.417,67.21 -106.275,157.087 -113.564,269.637Z" style="fill:#202020;fill-rule:nonzero;"/><path d="M23166.681,13688.59l471.256,-670.443l-436.034,-619.426l273.282,0l197.975,302.428c37.243,57.485 67.204,105.666 89.877,144.532c35.626,-53.442 68.417,-100.809 98.378,-142.107l217.408,-304.853l261.13,0l-445.741,607.281l479.751,682.588l-268.419,0l-264.774,-400.806l-70.444,-108.097l-338.869,508.903l-264.774,0Z" style="fill:#202020;fill-rule:nonzero;"/><path d="M25397.837,13529.481c-80.966,68.821 -158.903,117.407 -233.8,145.745c-74.897,28.338 -155.265,42.51 -241.094,42.51c-141.696,0 -250.602,-34.613 -326.718,-103.844c-76.109,-69.231 -114.167,-157.691 -114.167,-265.384c0,-63.156 14.371,-120.846 43.113,-173.075c28.748,-52.224 66.396,-94.131 112.954,-125.708c46.558,-31.578 98.987,-55.463 157.286,-71.657c42.914,-11.336 107.693,-22.269 194.33,-32.797c176.52,-21.05 306.476,-46.148 389.88,-75.301c0.808,-29.961 1.213,-48.99 1.213,-57.087c0,-89.069 -20.646,-151.82 -61.943,-188.255c-55.868,-49.394 -138.867,-74.088 -248.986,-74.088c-102.83,0 -178.741,18.015 -227.73,54.046c-48.99,36.037 -85.219,99.796 -108.707,191.296l-213.764,-29.153c19.433,-91.494 51.421,-165.383 95.953,-221.655c44.537,-56.278 108.906,-99.597 193.118,-129.962c84.212,-30.359 181.781,-45.545 292.708,-45.545c110.125,0 199.598,12.96 268.419,38.866c68.827,25.913 119.434,58.504 151.82,97.775c32.393,39.27 55.059,88.863 68.019,148.786c7.288,37.243 10.932,104.453 10.932,201.619l0,291.496c0,203.235 4.651,331.773 13.967,385.62c9.309,53.847 27.729,105.467 55.258,154.861l-228.334,0c-22.673,-45.346 -37.249,-98.384 -43.729,-159.108Zm-18.214,-488.258c-79.355,32.386 -198.379,59.916 -357.083,82.589c-89.877,12.96 -153.443,27.53 -190.686,43.729c-37.249,16.193 -65.992,39.874 -86.233,71.047c-20.248,31.174 -30.365,65.793 -30.365,103.85c0,58.299 22.064,106.879 66.191,145.745c44.133,38.866 108.707,58.299 193.727,58.299c84.206,0 159.108,-18.419 224.69,-55.264c65.587,-36.839 113.769,-87.247 144.538,-151.211c23.481,-49.394 35.222,-122.27 35.222,-218.62l0,-80.164Z" style="fill:#202020;fill-rule:nonzero;"/><path d="M25939.538,13688.59l0,-1289.869l195.543,0l0,180.967c40.489,-63.156 94.33,-113.962 161.54,-152.423c67.204,-38.462 143.724,-57.696 229.552,-57.696c95.542,0 173.884,19.837 235.019,59.518c61.129,39.675 104.248,95.138 129.346,166.39c102.028,-150.601 234.82,-225.908 398.381,-225.908c127.935,0 226.313,35.427 295.14,106.275c68.827,70.848 103.235,179.959 103.235,327.327l0,885.419l-217.401,0l0,-812.544c0,-87.452 -7.089,-150.409 -21.255,-188.871c-14.172,-38.456 -39.88,-69.43 -77.129,-92.912c-37.243,-23.481 -80.972,-35.222 -131.175,-35.222c-90.685,0 -165.986,30.16 -225.908,90.486c-59.916,60.32 -89.877,156.882 -89.877,289.674l0,749.388l-218.62,0l0,-838.053c0,-97.165 -17.816,-170.041 -53.442,-218.62c-35.626,-48.586 -93.925,-72.875 -174.897,-72.875c-61.539,0 -118.42,16.193 -170.644,48.586c-52.23,32.386 -90.082,79.753 -113.564,142.101c-23.481,62.347 -35.222,152.225 -35.222,269.631l0,669.231l-218.62,0Z" style="fill:#202020;fill-rule:nonzero;"/><path d="M28700.243,13688.59l0,-1289.869l196.762,0l0,195.543c50.203,-91.494 96.556,-151.82 139.066,-180.967c42.51,-29.153 89.268,-43.729 140.285,-43.729c73.684,0 148.58,23.481 224.69,70.444l-75.301,202.837c-53.442,-31.584 -106.879,-47.373 -160.321,-47.373c-47.771,0 -90.692,14.377 -128.743,43.12c-38.058,28.742 -65.183,68.622 -81.376,119.633c-24.296,77.732 -36.441,162.753 -36.441,255.061l0,675.3l-218.62,0Z" style="fill:#202020;fill-rule:nonzero;"/><path d="M30413.995,13273.208l225.908,27.934c-35.626,131.983 -101.618,234.409 -197.975,307.285c-96.357,72.875 -219.429,109.31 -369.228,109.31c-188.659,0 -338.253,-58.094 -448.782,-174.288c-110.523,-116.194 -165.787,-279.152 -165.787,-488.861c0,-217.003 55.868,-385.427 167.609,-505.259c111.742,-119.838 256.678,-179.76 434.815,-179.76c172.466,0 313.36,58.703 422.67,176.116c109.31,117.407 163.965,282.584 163.965,495.54c0,12.953 -0.404,32.386 -1.213,58.299l-961.939,0c8.097,141.703 48.182,250.198 120.242,325.505c72.067,75.301 161.944,112.954 269.637,112.954c80.157,0 148.58,-21.056 205.257,-63.156c56.682,-42.106 101.624,-109.31 134.819,-201.619Zm-717.81,-353.439l720.242,0c-9.72,-108.502 -37.249,-189.878 -82.595,-244.129c-69.629,-84.212 -159.917,-126.312 -270.844,-126.312c-100.405,0 -184.816,33.599 -253.239,100.803c-68.423,67.21 -106.275,157.087 -113.564,269.637Z" style="fill:#202020;fill-rule:nonzero;"/><path d="M31272.693,13688.59l-490.683,-1289.869l230.765,0l276.919,772.465c29.961,83.397 57.491,170.035 82.595,259.912c19.433,-68.013 46.558,-149.793 81.376,-245.341l286.633,-787.035l224.696,0l-488.258,1289.869l-204.044,0Z" style="fill:#202020;fill-rule:nonzero;"/><path d="M32159.325,12159.448l0,-251.411l218.62,0l0,251.411l-218.62,0Zm0,1529.141l0,-1289.869l218.62,0l0,1289.869l-218.62,0Z" style="fill:#202020;fill-rule:nonzero;"/><path d="M32623.287,13303.573l216.195,-34.009c12.145,86.637 45.949,153.033 101.419,199.187c55.463,46.154 132.99,69.231 232.587,69.231c100.405,0 174.897,-20.447 223.483,-61.334c48.58,-40.893 72.869,-88.87 72.869,-143.929c0,-49.394 -21.454,-88.26 -64.368,-116.598c-29.961,-19.433 -104.453,-44.127 -223.483,-74.088c-160.321,-40.483 -271.453,-75.506 -333.396,-105.063c-61.943,-29.551 -108.906,-70.444 -140.888,-122.668c-31.988,-52.23 -47.976,-109.92 -47.976,-173.075c0,-57.491 13.159,-110.728 39.476,-159.718c26.311,-48.984 62.142,-89.672 107.488,-122.064c34.003,-25.098 80.363,-46.353 139.066,-63.765c58.703,-17.406 121.66,-26.112 188.864,-26.112c101.214,0 190.077,14.576 266.597,43.729c76.52,29.146 132.997,68.622 169.431,118.414c36.441,49.798 61.539,116.399 75.307,199.797l-213.764,29.153c-9.72,-66.396 -37.859,-118.221 -84.417,-155.464c-46.558,-37.249 -112.345,-55.868 -197.365,-55.868c-100.405,0 -172.062,16.597 -214.976,49.792c-42.914,33.201 -64.375,72.067 -64.375,116.598c0,28.344 8.911,53.847 26.721,76.52c17.816,23.481 45.75,42.914 83.808,58.299c21.858,8.097 86.233,26.721 193.112,55.868c154.656,41.298 262.548,75.102 323.683,101.419c61.135,26.317 109.111,64.574 143.929,114.776c34.818,50.203 52.224,112.55 52.224,187.042c0,72.875 -21.255,141.497 -63.765,205.872c-42.51,64.368 -103.844,114.167 -184.008,149.389c-80.157,35.222 -170.849,52.833 -272.063,52.833c-167.609,0 -295.339,-34.818 -383.195,-104.453c-87.85,-69.636 -143.923,-172.87 -168.219,-309.71Z" style="fill:#202020;fill-rule:nonzero;"/><path d="M33955.666,12159.448l0,-251.411l218.626,0l0,251.411l-218.626,0Zm0,1529.141l0,-1289.869l218.626,0l0,1289.869l-218.626,0Z" style="fill:#202020;fill-rule:nonzero;"/><path d="M34425.704,13043.655c0,-238.868 66.396,-415.786 199.187,-530.768c110.933,-95.542 246.156,-143.32 405.669,-143.32c177.323,0 322.265,58.1 434.815,174.294c112.55,116.194 168.822,276.714 168.822,481.573c0,165.992 -24.899,296.558 -74.698,391.696c-49.792,95.144 -122.263,169.027 -217.401,221.661c-95.144,52.628 -198.988,78.945 -311.538,78.945c-180.569,0 -326.519,-57.895 -437.85,-173.685c-111.337,-115.784 -167.006,-282.584 -167.006,-500.396Zm224.696,0c0,165.178 36.03,288.865 108.097,371.05c72.061,82.185 162.753,123.277 272.063,123.277c108.502,0 198.783,-41.298 270.85,-123.886c72.061,-82.589 108.091,-208.503 108.091,-377.729c0,-159.513 -36.229,-280.364 -108.701,-362.549c-72.471,-82.185 -162.547,-123.277 -270.241,-123.277c-109.31,0 -200.002,40.887 -272.063,122.668c-72.067,81.78 -108.097,205.263 -108.097,370.447Z" style="fill:#202020;fill-rule:nonzero;"/><path d="M35890.47,13688.59l0,-1289.869l196.762,0l0,183.398c94.734,-141.703 231.574,-212.551 410.519,-212.551c77.732,0 149.19,13.967 214.373,41.907c65.183,27.934 113.968,64.574 146.354,109.913c32.393,45.346 55.059,99.192 68.019,161.54c8.097,40.483 12.145,111.337 12.145,212.551l0,793.111l-218.62,0l0,-784.61c0,-89.069 -8.507,-155.67 -25.509,-199.797c-17.002,-44.127 -47.168,-79.355 -90.486,-105.666c-43.319,-26.317 -94.131,-39.476 -152.43,-39.476c-93.111,0 -173.48,29.557 -241.088,88.664c-67.608,59.108 -101.419,171.253 -101.419,336.431l0,704.453l-218.62,0Z" style="fill:#202020;fill-rule:nonzero;"/><path d="M37964.95,14182.917l0,-1784.196l199.187,0l0,167.609c46.963,-65.587 100.001,-114.776 159.108,-147.573c59.108,-32.791 130.77,-49.189 214.976,-49.189c110.125,0 207.29,28.344 291.496,85.02c84.212,56.682 147.772,136.641 190.686,239.875c42.914,103.241 64.375,216.4 64.375,339.472c0,131.983 -23.687,250.808 -71.053,356.474c-47.367,105.672 -116.194,186.638 -206.475,242.916c-90.281,56.272 -185.22,84.411 -284.817,84.411c-72.869,0 -138.258,-15.385 -196.153,-46.154c-57.895,-30.77 -105.461,-69.636 -142.71,-116.598l0,627.933l-218.62,0Zm197.975,-1131.973c0,165.986 33.599,288.66 100.809,368.009c67.204,79.355 148.58,119.03 244.129,119.03c97.165,0 180.357,-41.092 249.589,-123.277c69.231,-82.185 103.844,-209.516 103.844,-381.982c0,-164.369 -33.804,-287.447 -101.413,-369.228c-67.608,-81.78 -148.381,-122.674 -242.307,-122.674c-93.117,0 -175.507,43.524 -247.163,130.565c-71.657,87.048 -107.488,213.565 -107.488,379.557Z" style="fill:#202020;fill-rule:nonzero;"/><path d="M39266.964,13043.655c0,-238.868 66.396,-415.786 199.187,-530.768c110.933,-95.542 246.15,-143.32 405.663,-143.32c177.329,0 322.265,58.1 434.815,174.294c112.55,116.194 168.828,276.714 168.828,481.573c0,165.992 -24.899,296.558 -74.698,391.696c-49.798,95.144 -122.263,169.027 -217.408,221.661c-95.138,52.628 -198.988,78.945 -311.538,78.945c-180.563,0 -326.513,-57.895 -437.85,-173.685c-111.331,-115.784 -167,-282.584 -167,-500.396Zm224.696,0c0,165.178 36.03,288.865 108.091,371.05c72.067,82.185 162.753,123.277 272.063,123.277c108.502,0 198.789,-41.298 270.85,-123.886c72.067,-82.589 108.097,-208.503 108.097,-377.729c0,-159.513 -36.236,-280.364 -108.701,-362.549c-72.471,-82.185 -162.554,-123.277 -270.247,-123.277c-109.31,0 -199.996,40.887 -272.063,122.668c-72.061,81.78 -108.091,205.263 -108.091,370.447Z" style="fill:#202020;fill-rule:nonzero;"/><path d="M40729.299,13688.59l0,-1289.869l196.762,0l0,195.543c50.203,-91.494 96.556,-151.82 139.066,-180.967c42.51,-29.153 89.268,-43.729 140.285,-43.729c73.684,0 148.58,23.481 224.69,70.444l-75.301,202.837c-53.442,-31.584 -106.879,-47.373 -160.321,-47.373c-47.771,0 -90.692,14.377 -128.743,43.12c-38.058,28.742 -65.183,68.622 -81.376,119.633c-24.296,77.732 -36.441,162.753 -36.441,255.061l0,675.3l-218.62,0Z" style="fill:#202020;fill-rule:nonzero;"/><path d="M42037.389,13493.04l31.578,193.118c-61.539,12.953 -116.598,19.433 -165.184,19.433c-79.349,0 -140.888,-12.549 -184.611,-37.653c-43.723,-25.098 -74.492,-58.094 -92.309,-98.987c-17.816,-40.887 -26.721,-126.921 -26.721,-258.096l0,-742.094l-160.321,0l0,-170.041l160.321,0l0,-319.43l217.408,-131.175l0,450.604l219.839,0l0,170.041l-219.839,0l0,754.245c0,62.347 3.849,102.426 11.542,120.242c7.692,17.81 20.241,31.982 37.647,42.504c17.412,10.528 42.311,15.795 74.698,15.795c24.29,0 56.272,-2.836 95.953,-8.507Z" style="fill:#202020;fill-rule:nonzero;"/><path d="M43092.843,13529.481c-80.972,68.821 -158.903,117.407 -233.8,145.745c-74.903,28.338 -155.265,42.51 -241.094,42.51c-141.696,0 -250.602,-34.613 -326.718,-103.844c-76.115,-69.231 -114.167,-157.691 -114.167,-265.384c0,-63.156 14.371,-120.846 43.113,-173.075c28.748,-52.224 66.396,-94.131 112.954,-125.708c46.558,-31.578 98.987,-55.463 157.286,-71.657c42.914,-11.336 107.693,-22.269 194.33,-32.797c176.52,-21.05 306.476,-46.148 389.88,-75.301c0.808,-29.961 1.213,-48.99 1.213,-57.087c0,-89.069 -20.646,-151.82 -61.943,-188.255c-55.868,-49.394 -138.867,-74.088 -248.986,-74.088c-102.837,0 -178.747,18.015 -227.73,54.046c-48.99,36.037 -85.226,99.796 -108.707,191.296l-213.764,-29.153c19.433,-91.494 51.421,-165.383 95.953,-221.655c44.531,-56.278 108.906,-99.597 193.118,-129.962c84.206,-30.359 181.775,-45.545 292.708,-45.545c110.119,0 199.591,12.96 268.419,38.866c68.827,25.913 119.434,58.504 151.82,97.775c32.386,39.27 55.059,88.863 68.019,148.786c7.282,37.243 10.926,104.453 10.926,201.619l0,291.496c0,203.235 4.658,331.773 13.973,385.62c9.309,53.847 27.729,105.467 55.258,154.861l-228.34,0c-22.667,-45.346 -37.243,-98.384 -43.723,-159.108Zm-18.214,-488.258c-79.355,32.386 -198.379,59.916 -357.083,82.589c-89.877,12.96 -153.443,27.53 -190.686,43.729c-37.249,16.193 -65.992,39.874 -86.239,71.047c-20.241,31.174 -30.359,65.793 -30.359,103.85c0,58.299 22.064,106.879 66.191,145.745c44.133,38.866 108.707,58.299 193.721,58.299c84.212,0 159.108,-18.419 224.696,-55.264c65.587,-36.839 113.769,-87.247 144.532,-151.211c23.488,-49.394 35.228,-122.27 35.228,-218.62l0,-80.164Z" style="fill:#202020;fill-rule:nonzero;"/><rect x="43629.68" y="11908.037" width="218.62" height="1780.552" style="fill:#202020;"/></g></g></g></g></svg>