<?xml version="1.0" encoding="UTF-8" standalone="no"?><!DOCTYPE svg PUBLIC "-//W3C//DTD SVG 1.1//EN" "http://www.w3.org/Graphics/SVG/1.1/DTD/svg11.dtd"><svg width="100%" height="100%" viewBox="0 0 11812 11812" version="1.1" xmlns="http://www.w3.org/2000/svg" xmlns:xlink="http://www.w3.org/1999/xlink" xml:space="preserve" xmlns:serif="http://www.serif.com/" style="fill-rule:evenodd;clip-rule:evenodd;stroke-linejoin:round;stroke-miterlimit:2;"><rect id="ENLIT-COMBO-DARK" serif:id="ENLIT COMBO DARK" x="0" y="0" width="11811.024" height="11811.024" style="fill:#f0f0f0;"/><g id="ENLIT-COMBO-DARK1" serif:id="ENLIT COMBO DARK"><g id="ENLIT-BOOK-LOGO-DARK" serif:id="ENLIT BOOK LOGO DARK"><g id="ghostPAGES"><path d="M3105.589,7928.649c-649.009,-420.784 -1719.74,-649.723 -2229.678,-574.574l-14.319,-3471.7c746.05,11.455 1492.099,162.576 2238.149,508.231l3.509,1769.607l2.339,1768.437Z" style="fill:#202020;fill-opacity:0.5;fill-rule:nonzero;"/><path d="M2689.191,7749.47c-1076.921,-202.456 -1341.674,-159.584 -2096.13,-80.216l-2.511,-3249.798l234.697,0.463l-0.523,2983.268c153.032,-51.22 1199.858,4.144 1864.466,346.283Z" style="fill:#202020;fill-opacity:0.5;fill-rule:nonzero;"/></g><g id="E-L-logo" serif:id="E&amp;L logo"><path d="M3918.462,7490.049l0.993,-473.689l2215.401,15.205l0,423.396l-2216.394,35.088Z" style="fill:#534ab7;fill-rule:nonzero;"/><path d="M3222.876,7928.649l0.719,-3525.688l231.764,-42.313l1.013,3299.708c0,0 1052.738,-72.06 1584.907,-79.078c479.537,-5.848 1374.282,35.088 1374.282,35.088l0,-3457.341c0,0 -1773.462,110.987 -2478.385,237.429c0,0 -12.866,499.42 -15.205,1549.722l-3.509,1543.874l-161.405,10.526c-88.89,4.678 -163.744,7.018 -166.083,5.848c-2.339,-2.339 -8.187,-715.796 -12.866,-1583.64l-5.146,-1584.186c952.447,-202.209 2552.813,-261.045 2923.101,-267.57l-2.047,3678.443c-55.505,0 -1189.431,-30.895 -1832.857,15.435c-522.796,37.644 -1438.282,163.744 -1438.282,163.744Z" style="fill:#202020;fill-rule:nonzero;"/><path d="M4462.327,6164.89l0,-93.568l102.925,-7.018c292.4,-21.053 1079.542,-53.802 1280.713,-53.802l125.147,0l0,93.568l-113.451,0c-243.277,0 -1078.372,35.088 -1309.953,53.802l-85.381,7.018Z" style="fill:#202020;fill-rule:nonzero;"/><path d="M4462.327,5275.993l0,-93.568l102.925,-7.018c292.4,-21.053 1079.542,-53.802 1280.713,-53.802l125.147,0l0,93.568l-113.451,0c-243.277,0 -1078.372,35.088 -1309.953,53.802l-85.381,7.018Z" style="fill:#202020;fill-rule:nonzero;"/></g></g><g id="labe-" serif:id="labe;"><g><path d="M7171.82,5585.797l0,-858.984l621.094,0l0,101.367l-507.422,0l0,263.086l475.195,0l0,100.781l-475.195,0l0,292.383l527.344,0l0,101.367l-641.016,0Z" style="fill:#202020;fill-rule:nonzero;"/><path d="M7956.39,5585.797l0,-622.266l94.922,0l0,88.477c45.703,-68.359 111.719,-102.539 198.047,-102.539c37.5,0 71.973,6.738 103.418,20.215c31.445,13.477 54.98,31.152 70.605,53.027c15.625,21.875 26.562,47.852 32.812,77.93c3.906,19.531 5.859,53.711 5.859,102.539l0,382.617l-105.469,0l0,-378.516c0,-42.969 -4.102,-75.098 -12.305,-96.387c-8.203,-21.289 -22.754,-38.281 -43.652,-50.977c-20.898,-12.695 -45.41,-19.043 -73.535,-19.043c-44.922,0 -83.691,14.258 -116.309,42.773c-32.617,28.516 -48.926,82.617 -48.926,162.305l0,339.844l-105.469,0Z" style="fill:#202020;fill-rule:nonzero;"/><path d="M8632.562,5585.797l0,-858.984l113.672,0l0,757.617l423.047,0l0,101.367l-536.719,0Z" style="fill:#202020;fill-rule:nonzero;"/><path d="M9291.741,4848.102l0,-121.289l105.469,0l0,121.289l-105.469,0Zm0,737.695l0,-622.266l105.469,0l0,622.266l-105.469,0Z" style="fill:#202020;fill-rule:nonzero;"/><path d="M9788.031,5491.461l15.234,93.164c-29.688,6.25 -56.25,9.375 -79.688,9.375c-38.281,0 -67.969,-6.055 -89.062,-18.164c-21.094,-12.109 -35.938,-28.027 -44.531,-47.754c-8.594,-19.727 -12.891,-61.23 -12.891,-124.512l0,-358.008l-77.344,0l0,-82.031l77.344,0l0,-154.102l104.883,-63.281l0,217.383l106.055,0l0,82.031l-106.055,0l0,363.867c0,30.078 1.855,49.414 5.566,58.008c3.711,8.594 9.766,15.43 18.164,20.508c8.398,5.078 20.41,7.617 36.035,7.617c11.719,0 27.148,-1.367 46.289,-4.102Z" style="fill:#202020;fill-rule:nonzero;"/></g><g><path d="M7108.538,6543.293l0,-286.328l207.031,0l0,33.789l-169.141,0l0,87.695l158.398,0l0,33.594l-158.398,0l0,97.461l175.781,0l0,33.789l-213.672,0Z" style="fill:#202020;fill-rule:nonzero;"/><path d="M7370.062,6543.293l0,-207.422l31.641,0l0,29.492c15.234,-22.786 37.24,-34.18 66.016,-34.18c12.5,0 23.991,2.246 34.473,6.738c10.482,4.492 18.327,10.384 23.535,17.676c5.208,7.292 8.854,15.951 10.938,25.977c1.302,6.51 1.953,17.904 1.953,34.18l0,127.539l-35.156,0l0,-126.172c0,-14.323 -1.367,-25.033 -4.102,-32.129c-2.734,-7.096 -7.585,-12.76 -14.551,-16.992c-6.966,-4.232 -15.137,-6.348 -24.512,-6.348c-14.974,0 -27.897,4.753 -38.77,14.258c-10.872,9.505 -16.309,27.539 -16.309,54.102l0,113.281l-35.156,0Z" style="fill:#202020;fill-rule:nonzero;"/><path d="M7586.077,6560.481l34.18,5.078c1.432,10.547 5.404,18.229 11.914,23.047c8.724,6.51 20.638,9.766 35.742,9.766c16.276,0 28.841,-3.255 37.695,-9.766c8.854,-6.51 14.844,-15.625 17.969,-27.344c1.823,-7.161 2.669,-22.201 2.539,-45.117c-15.365,18.099 -34.505,27.148 -57.422,27.148c-28.516,0 -50.586,-10.286 -66.211,-30.859c-15.625,-20.573 -23.438,-45.247 -23.438,-74.023c0,-19.792 3.581,-38.053 10.742,-54.785c7.161,-16.732 17.546,-29.655 31.152,-38.77c13.607,-9.115 29.59,-13.672 47.949,-13.672c24.479,0 44.661,9.896 60.547,29.688l0,-25l32.422,0l0,179.297c0,32.292 -3.288,55.176 -9.863,68.652c-6.576,13.477 -16.992,24.121 -31.25,31.934c-14.258,7.812 -31.803,11.719 -52.637,11.719c-24.74,0 -44.727,-5.566 -59.961,-16.699c-15.234,-11.133 -22.591,-27.897 -22.07,-50.293Zm29.102,-124.609c0,27.214 5.404,47.07 16.211,59.57c10.807,12.5 24.349,18.75 40.625,18.75c16.146,0 29.688,-6.217 40.625,-18.652c10.938,-12.435 16.406,-31.934 16.406,-58.496c0,-25.391 -5.632,-44.531 -16.895,-57.422c-11.263,-12.891 -24.837,-19.336 -40.723,-19.336c-15.625,0 -28.906,6.348 -39.844,19.043c-10.938,12.695 -16.406,31.543 -16.406,56.543Z" style="fill:#202020;fill-rule:nonzero;"/><rect x="7814.202" y="6256.965" width="35.156" height="286.328" style="fill:#202020;fill-rule:nonzero;"/><path d="M7904.046,6297.395l0,-40.43l35.156,0l0,40.43l-35.156,0Zm0,245.898l0,-207.422l35.156,0l0,207.422l-35.156,0Z" style="fill:#202020;fill-rule:nonzero;"/><path d="M7978.656,6481.379l34.766,-5.469c1.953,13.932 7.389,24.609 16.309,32.031c8.919,7.422 21.387,11.133 37.402,11.133c16.146,0 28.125,-3.288 35.938,-9.863c7.812,-6.576 11.719,-14.29 11.719,-23.145c0,-7.943 -3.451,-14.193 -10.352,-18.75c-4.818,-3.125 -16.797,-7.096 -35.938,-11.914c-25.781,-6.51 -43.652,-12.142 -53.613,-16.895c-9.961,-4.753 -17.513,-11.328 -22.656,-19.727c-5.143,-8.398 -7.715,-17.676 -7.715,-27.832c0,-9.245 2.116,-17.806 6.348,-25.684c4.232,-7.878 9.993,-14.421 17.285,-19.629c5.469,-4.036 12.923,-7.454 22.363,-10.254c9.44,-2.799 19.564,-4.199 30.371,-4.199c16.276,0 30.566,2.344 42.871,7.031c12.305,4.688 21.387,11.035 27.246,19.043c5.859,8.008 9.896,18.717 12.109,32.129l-34.375,4.688c-1.562,-10.677 -6.087,-19.01 -13.574,-25c-7.487,-5.99 -18.066,-8.984 -31.738,-8.984c-16.146,0 -27.669,2.669 -34.57,8.008c-6.901,5.339 -10.352,11.589 -10.352,18.75c0,4.557 1.432,8.659 4.297,12.305c2.865,3.776 7.357,6.901 13.477,9.375c3.516,1.302 13.867,4.297 31.055,8.984c24.87,6.641 42.22,12.077 52.051,16.309c9.831,4.232 17.546,10.384 23.145,18.457c5.599,8.073 8.398,18.099 8.398,30.078c0,11.719 -3.418,22.754 -10.254,33.105c-6.836,10.352 -16.699,18.359 -29.59,24.023c-12.891,5.664 -27.474,8.496 -43.75,8.496c-26.953,0 -47.493,-5.599 -61.621,-16.797c-14.128,-11.198 -23.145,-27.799 -27.051,-49.805Z" style="fill:#202020;fill-rule:nonzero;"/><path d="M8192.718,6543.293l0,-286.328l35.156,0l0,102.734c16.406,-19.01 37.109,-28.516 62.109,-28.516c15.365,0 28.711,3.027 40.039,9.082c11.328,6.055 19.434,14.421 24.316,25.098c4.883,10.677 7.324,26.172 7.324,46.484l0,131.445l-35.156,0l0,-131.445c0,-17.578 -3.809,-30.371 -11.426,-38.379c-7.617,-8.008 -18.392,-12.012 -32.324,-12.012c-10.417,0 -20.215,2.702 -29.395,8.105c-9.18,5.404 -15.723,12.728 -19.629,21.973c-3.906,9.245 -5.859,22.005 -5.859,38.281l0,113.477l-35.156,0Z" style="fill:#202020;fill-rule:nonzero;"/><rect x="8525.531" y="6256.965" width="35.156" height="286.328" style="fill:#202020;fill-rule:nonzero;"/><path d="M8615.374,6297.395l0,-40.43l35.156,0l0,40.43l-35.156,0Zm0,245.898l0,-207.422l35.156,0l0,207.422l-35.156,0Z" style="fill:#202020;fill-rule:nonzero;"/><path d="M8780.804,6511.848l5.078,31.055c-9.896,2.083 -18.75,3.125 -26.562,3.125c-12.76,0 -22.656,-2.018 -29.688,-6.055c-7.031,-4.036 -11.979,-9.342 -14.844,-15.918c-2.865,-6.576 -4.297,-20.41 -4.297,-41.504l0,-119.336l-25.781,0l0,-27.344l25.781,0l0,-51.367l34.961,-21.094l0,72.461l35.352,0l0,27.344l-35.352,0l0,121.289c0,10.026 0.618,16.471 1.855,19.336c1.237,2.865 3.255,5.143 6.055,6.836c2.799,1.693 6.803,2.539 12.012,2.539c3.906,0 9.049,-0.456 15.43,-1.367Z" style="fill:#202020;fill-rule:nonzero;"/><path d="M8957.171,6476.496l36.328,4.492c-5.729,21.224 -16.341,37.695 -31.836,49.414c-15.495,11.719 -35.286,17.578 -59.375,17.578c-30.339,0 -54.395,-9.342 -72.168,-28.027c-17.773,-18.685 -26.66,-44.889 -26.66,-78.613c0,-34.896 8.984,-61.979 26.953,-81.25c17.969,-19.271 41.276,-28.906 69.922,-28.906c27.734,0 50.391,9.44 67.969,28.32c17.578,18.88 26.367,45.443 26.367,79.688c0,2.083 -0.065,5.208 -0.195,9.375l-154.688,0c1.302,22.786 7.747,40.234 19.336,52.344c11.589,12.109 26.042,18.164 43.359,18.164c12.891,0 23.893,-3.385 33.008,-10.156c9.115,-6.771 16.341,-17.578 21.68,-32.422Zm-115.43,-56.836l115.82,0c-1.562,-17.448 -5.99,-30.534 -13.281,-39.258c-11.198,-13.542 -25.716,-20.312 -43.555,-20.312c-16.146,0 -29.72,5.404 -40.723,16.211c-11.003,10.807 -17.09,25.26 -18.262,43.359Z" style="fill:#202020;fill-rule:nonzero;"/><path d="M9037.249,6543.293l0,-207.422l31.641,0l0,31.445c8.073,-14.714 15.527,-24.414 22.363,-29.102c6.836,-4.688 14.355,-7.031 22.559,-7.031c11.849,0 23.893,3.776 36.133,11.328l-12.109,32.617c-8.594,-5.078 -17.188,-7.617 -25.781,-7.617c-7.682,0 -14.583,2.311 -20.703,6.934c-6.12,4.622 -10.482,11.035 -13.086,19.238c-3.906,12.5 -5.859,26.172 -5.859,41.016l0,108.594l-35.156,0Z" style="fill:#202020;fill-rule:nonzero;"/><path d="M9306.195,6517.707c-13.021,11.068 -25.553,18.88 -37.598,23.438c-12.044,4.557 -24.967,6.836 -38.77,6.836c-22.786,0 -40.299,-5.566 -52.539,-16.699c-12.24,-11.133 -18.359,-25.358 -18.359,-42.676c0,-10.156 2.311,-19.434 6.934,-27.832c4.622,-8.398 10.677,-15.137 18.164,-20.215c7.487,-5.078 15.918,-8.919 25.293,-11.523c6.901,-1.823 17.318,-3.581 31.25,-5.273c28.385,-3.385 49.284,-7.422 62.695,-12.109c0.13,-4.818 0.195,-7.878 0.195,-9.18c0,-14.323 -3.32,-24.414 -9.961,-30.273c-8.984,-7.943 -22.331,-11.914 -40.039,-11.914c-16.536,0 -28.743,2.897 -36.621,8.691c-7.878,5.794 -13.704,16.048 -17.48,30.762l-34.375,-4.688c3.125,-14.714 8.268,-26.595 15.43,-35.645c7.161,-9.049 17.513,-16.016 31.055,-20.898c13.542,-4.883 29.232,-7.324 47.07,-7.324c17.708,0 32.096,2.083 43.164,6.25c11.068,4.167 19.206,9.408 24.414,15.723c5.208,6.315 8.854,14.29 10.938,23.926c1.172,5.99 1.758,16.797 1.758,32.422l0,46.875c0,32.682 0.749,53.353 2.246,62.012c1.497,8.659 4.46,16.96 8.887,24.902l-36.719,0c-3.646,-7.292 -5.99,-15.82 -7.031,-25.586Zm-2.93,-78.516c-12.76,5.208 -31.901,9.635 -57.422,13.281c-14.453,2.083 -24.674,4.427 -30.664,7.031c-5.99,2.604 -10.612,6.413 -13.867,11.426c-3.255,5.013 -4.883,10.579 -4.883,16.699c0,9.375 3.548,17.188 10.645,23.438c7.096,6.25 17.48,9.375 31.152,9.375c13.542,0 25.586,-2.962 36.133,-8.887c10.547,-5.924 18.294,-14.03 23.242,-24.316c3.776,-7.943 5.664,-19.661 5.664,-35.156l0,-12.891Z" style="fill:#202020;fill-rule:nonzero;"/><path d="M9470.062,6511.848l5.078,31.055c-9.896,2.083 -18.75,3.125 -26.562,3.125c-12.76,0 -22.656,-2.018 -29.688,-6.055c-7.031,-4.036 -11.979,-9.342 -14.844,-15.918c-2.865,-6.576 -4.297,-20.41 -4.297,-41.504l0,-119.336l-25.781,0l0,-27.344l25.781,0l0,-51.367l34.961,-21.094l0,72.461l35.352,0l0,27.344l-35.352,0l0,121.289c0,10.026 0.618,16.471 1.855,19.336c1.237,2.865 3.255,5.143 6.055,6.836c2.799,1.693 6.803,2.539 12.012,2.539c3.906,0 9.049,-0.456 15.43,-1.367Z" style="fill:#202020;fill-rule:nonzero;"/><path d="M9640.374,6543.293l0,-30.469c-16.146,23.438 -38.086,35.156 -65.82,35.156c-12.24,0 -23.665,-2.344 -34.277,-7.031c-10.612,-4.688 -18.49,-10.579 -23.633,-17.676c-5.143,-7.096 -8.757,-15.788 -10.84,-26.074c-1.432,-6.901 -2.148,-17.839 -2.148,-32.812l0,-128.516l35.156,0l0,115.039c0,18.359 0.716,30.729 2.148,37.109c2.214,9.245 6.901,16.504 14.062,21.777c7.161,5.273 16.016,7.91 26.562,7.91c10.547,0 20.443,-2.702 29.688,-8.105c9.245,-5.404 15.788,-12.76 19.629,-22.07c3.841,-9.31 5.762,-22.819 5.762,-40.527l0,-111.133l35.156,0l0,207.422l-31.445,0Z" style="fill:#202020;fill-rule:nonzero;"/><path d="M9726.507,6543.293l0,-207.422l31.641,0l0,31.445c8.073,-14.714 15.527,-24.414 22.363,-29.102c6.836,-4.688 14.355,-7.031 22.559,-7.031c11.849,0 23.893,3.776 36.133,11.328l-12.109,32.617c-8.594,-5.078 -17.188,-7.617 -25.781,-7.617c-7.682,0 -14.583,2.311 -20.703,6.934c-6.12,4.622 -10.482,11.035 -13.086,19.238c-3.906,12.5 -5.859,26.172 -5.859,41.016l0,108.594l-35.156,0Z" style="fill:#202020;fill-rule:nonzero;"/><path d="M10002.093,6476.496l36.328,4.492c-5.729,21.224 -16.341,37.695 -31.836,49.414c-15.495,11.719 -35.286,17.578 -59.375,17.578c-30.339,0 -54.395,-9.342 -72.168,-28.027c-17.773,-18.685 -26.66,-44.889 -26.66,-78.613c0,-34.896 8.984,-61.979 26.953,-81.25c17.969,-19.271 41.276,-28.906 69.922,-28.906c27.734,0 50.391,9.44 67.969,28.32c17.578,18.88 26.367,45.443 26.367,79.688c0,2.083 -0.065,5.208 -0.195,9.375l-154.688,0c1.302,22.786 7.747,40.234 19.336,52.344c11.589,12.109 26.042,18.164 43.359,18.164c12.891,0 23.893,-3.385 33.008,-10.156c9.115,-6.771 16.341,-17.578 21.68,-32.422Zm-115.43,-56.836l115.82,0c-1.562,-17.448 -5.99,-30.534 -13.281,-39.258c-11.198,-13.542 -25.716,-20.312 -43.555,-20.312c-16.146,0 -29.72,5.404 -40.723,16.211c-11.003,10.807 -17.09,25.26 -18.262,43.359Z" style="fill:#202020;fill-rule:nonzero;"/><path d="M7245.257,6986.457l36.328,4.492c-5.729,21.224 -16.341,37.695 -31.836,49.414c-15.495,11.719 -35.286,17.578 -59.375,17.578c-30.339,0 -54.395,-9.342 -72.168,-28.027c-17.773,-18.685 -26.66,-44.889 -26.66,-78.613c0,-34.896 8.984,-61.979 26.953,-81.25c17.969,-19.271 41.276,-28.906 69.922,-28.906c27.734,0 50.391,9.44 67.969,28.32c17.578,18.88 26.367,45.443 26.367,79.688c0,2.083 -0.065,5.208 -0.195,9.375l-154.688,0c1.302,22.786 7.747,40.234 19.336,52.344c11.589,12.109 26.042,18.164 43.359,18.164c12.891,0 23.893,-3.385 33.008,-10.156c9.115,-6.771 16.341,-17.578 21.68,-32.422Zm-115.43,-56.836l115.82,0c-1.562,-17.448 -5.99,-30.534 -13.281,-39.258c-11.198,-13.542 -25.716,-20.312 -43.555,-20.312c-16.146,0 -29.72,5.404 -40.723,16.211c-11.003,10.807 -17.09,25.26 -18.262,43.359Z" style="fill:#202020;fill-rule:nonzero;"/><path d="M7302.288,7053.254l75.781,-107.812l-70.117,-99.609l43.945,0l31.836,48.633c5.99,9.245 10.807,16.992 14.453,23.242c5.729,-8.594 11.003,-16.211 15.82,-22.852l34.961,-49.023l41.992,0l-71.68,97.656l77.148,109.766l-43.164,0l-42.578,-64.453l-11.328,-17.383l-54.492,81.836l-42.578,0Z" style="fill:#202020;fill-rule:nonzero;"/><path d="M7661.077,7027.668c-13.021,11.068 -25.553,18.88 -37.598,23.438c-12.044,4.557 -24.967,6.836 -38.77,6.836c-22.786,0 -40.299,-5.566 -52.539,-16.699c-12.24,-11.133 -18.359,-25.358 -18.359,-42.676c0,-10.156 2.311,-19.434 6.934,-27.832c4.622,-8.398 10.677,-15.137 18.164,-20.215c7.487,-5.078 15.918,-8.919 25.293,-11.523c6.901,-1.823 17.318,-3.581 31.25,-5.273c28.385,-3.385 49.284,-7.422 62.695,-12.109c0.13,-4.818 0.195,-7.878 0.195,-9.18c0,-14.323 -3.32,-24.414 -9.961,-30.273c-8.984,-7.943 -22.331,-11.914 -40.039,-11.914c-16.536,0 -28.743,2.897 -36.621,8.691c-7.878,5.794 -13.704,16.048 -17.48,30.762l-34.375,-4.688c3.125,-14.714 8.268,-26.595 15.43,-35.645c7.161,-9.049 17.513,-16.016 31.055,-20.898c13.542,-4.883 29.232,-7.324 47.07,-7.324c17.708,0 32.096,2.083 43.164,6.25c11.068,4.167 19.206,9.408 24.414,15.723c5.208,6.315 8.854,14.29 10.938,23.926c1.172,5.99 1.758,16.797 1.758,32.422l0,46.875c0,32.682 0.749,53.353 2.246,62.012c1.497,8.659 4.46,16.96 8.887,24.902l-36.719,0c-3.646,-7.292 -5.99,-15.82 -7.031,-25.586Zm-2.93,-78.516c-12.76,5.208 -31.901,9.635 -57.422,13.281c-14.453,2.083 -24.674,4.427 -30.664,7.031c-5.99,2.604 -10.612,6.413 -13.867,11.426c-3.255,5.013 -4.883,10.579 -4.883,16.699c0,9.375 3.548,17.188 10.645,23.438c7.096,6.25 17.48,9.375 31.152,9.375c13.542,0 25.586,-2.962 36.133,-8.887c10.547,-5.924 18.294,-14.03 23.242,-24.316c3.776,-7.943 5.664,-19.661 5.664,-35.156l0,-12.891Z" style="fill:#202020;fill-rule:nonzero;"/><path d="M7748.187,7053.254l0,-207.422l31.445,0l0,29.102c6.51,-10.156 15.169,-18.327 25.977,-24.512c10.807,-6.185 23.112,-9.277 36.914,-9.277c15.365,0 27.962,3.19 37.793,9.57c9.831,6.38 16.764,15.299 20.801,26.758c16.406,-24.219 37.76,-36.328 64.062,-36.328c20.573,0 36.393,5.697 47.461,17.09c11.068,11.393 16.602,28.939 16.602,52.637l0,142.383l-34.961,0l0,-130.664c0,-14.062 -1.139,-24.186 -3.418,-30.371c-2.279,-6.185 -6.413,-11.165 -12.402,-14.941c-5.99,-3.776 -13.021,-5.664 -21.094,-5.664c-14.583,0 -26.693,4.85 -36.328,14.551c-9.635,9.701 -14.453,25.228 -14.453,46.582l0,120.508l-35.156,0l0,-134.766c0,-15.625 -2.865,-27.344 -8.594,-35.156c-5.729,-7.812 -15.104,-11.719 -28.125,-11.719c-9.896,0 -19.043,2.604 -27.441,7.812c-8.398,5.208 -14.486,12.826 -18.262,22.852c-3.776,10.026 -5.664,24.479 -5.664,43.359l0,107.617l-35.156,0Z" style="fill:#202020;fill-rule:nonzero;"/><path d="M8192.132,7053.254l0,-207.422l31.641,0l0,31.445c8.073,-14.714 15.527,-24.414 22.363,-29.102c6.836,-4.688 14.355,-7.031 22.559,-7.031c11.849,0 23.893,3.776 36.133,11.328l-12.109,32.617c-8.594,-5.078 -17.188,-7.617 -25.781,-7.617c-7.682,0 -14.583,2.311 -20.703,6.934c-6.12,4.622 -10.482,11.035 -13.086,19.238c-3.906,12.5 -5.859,26.172 -5.859,41.016l0,108.594l-35.156,0Z" style="fill:#202020;fill-rule:nonzero;"/><path d="M8467.718,6986.457l36.328,4.492c-5.729,21.224 -16.341,37.695 -31.836,49.414c-15.495,11.719 -35.286,17.578 -59.375,17.578c-30.339,0 -54.395,-9.342 -72.168,-28.027c-17.773,-18.685 -26.66,-44.889 -26.66,-78.613c0,-34.896 8.984,-61.979 26.953,-81.25c17.969,-19.271 41.276,-28.906 69.922,-28.906c27.734,0 50.391,9.44 67.969,28.32c17.578,18.88 26.367,45.443 26.367,79.688c0,2.083 -0.065,5.208 -0.195,9.375l-154.688,0c1.302,22.786 7.747,40.234 19.336,52.344c11.589,12.109 26.042,18.164 43.359,18.164c12.891,0 23.893,-3.385 33.008,-10.156c9.115,-6.771 16.341,-17.578 21.68,-32.422Zm-115.43,-56.836l115.82,0c-1.562,-17.448 -5.99,-30.534 -13.281,-39.258c-11.198,-13.542 -25.716,-20.312 -43.555,-20.312c-16.146,0 -29.72,5.404 -40.723,16.211c-11.003,10.807 -17.09,25.26 -18.262,43.359Z" style="fill:#202020;fill-rule:nonzero;"/><path d="M8605.804,7053.254l-78.906,-207.422l37.109,0l44.531,124.219c4.818,13.411 9.245,27.344 13.281,41.797c3.125,-10.938 7.487,-24.089 13.086,-39.453l46.094,-126.562l36.133,0l-78.516,207.422l-32.812,0Z" style="fill:#202020;fill-rule:nonzero;"/><path d="M8748.382,6807.356l0,-40.43l35.156,0l0,40.43l-35.156,0Zm0,245.898l0,-207.422l35.156,0l0,207.422l-35.156,0Z" style="fill:#202020;fill-rule:nonzero;"/><path d="M8822.991,6991.34l34.766,-5.469c1.953,13.932 7.389,24.609 16.309,32.031c8.919,7.422 21.387,11.133 37.402,11.133c16.146,0 28.125,-3.288 35.938,-9.863c7.812,-6.576 11.719,-14.29 11.719,-23.145c0,-7.943 -3.451,-14.193 -10.352,-18.75c-4.818,-3.125 -16.797,-7.096 -35.938,-11.914c-25.781,-6.51 -43.652,-12.142 -53.613,-16.895c-9.961,-4.753 -17.513,-11.328 -22.656,-19.727c-5.143,-8.398 -7.715,-17.676 -7.715,-27.832c0,-9.245 2.116,-17.806 6.348,-25.684c4.232,-7.878 9.993,-14.421 17.285,-19.629c5.469,-4.036 12.923,-7.454 22.363,-10.254c9.44,-2.799 19.564,-4.199 30.371,-4.199c16.276,0 30.566,2.344 42.871,7.031c12.305,4.688 21.387,11.035 27.246,19.043c5.859,8.008 9.896,18.717 12.109,32.129l-34.375,4.688c-1.562,-10.677 -6.087,-19.01 -13.574,-25c-7.487,-5.99 -18.066,-8.984 -31.738,-8.984c-16.146,0 -27.669,2.669 -34.57,8.008c-6.901,5.339 -10.352,11.589 -10.352,18.75c0,4.557 1.432,8.659 4.297,12.305c2.865,3.776 7.357,6.901 13.477,9.375c3.516,1.302 13.867,4.297 31.055,8.984c24.87,6.641 42.22,12.077 52.051,16.309c9.831,4.232 17.546,10.384 23.145,18.457c5.599,8.073 8.398,18.099 8.398,30.078c0,11.719 -3.418,22.754 -10.254,33.105c-6.836,10.352 -16.699,18.359 -29.59,24.023c-12.891,5.664 -27.474,8.496 -43.75,8.496c-26.953,0 -47.493,-5.599 -61.621,-16.797c-14.128,-11.198 -23.145,-27.799 -27.051,-49.805Z" style="fill:#202020;fill-rule:nonzero;"/><path d="M9037.249,6807.356l0,-40.43l35.156,0l0,40.43l-35.156,0Zm0,245.898l0,-207.422l35.156,0l0,207.422l-35.156,0Z" style="fill:#202020;fill-rule:nonzero;"/><path d="M9112.835,6949.543c0,-38.411 10.677,-66.862 32.031,-85.352c17.839,-15.365 39.583,-23.047 65.234,-23.047c28.516,0 51.823,9.342 69.922,28.027c18.099,18.685 27.148,44.499 27.148,77.441c0,26.693 -4.004,47.689 -12.012,62.988c-8.008,15.299 -19.661,27.181 -34.961,35.645c-15.299,8.464 -31.999,12.695 -50.098,12.695c-29.036,0 -52.507,-9.31 -70.41,-27.93c-17.904,-18.62 -26.855,-45.443 -26.855,-80.469Zm36.133,0c0,26.562 5.794,46.452 17.383,59.668c11.589,13.216 26.172,19.824 43.75,19.824c17.448,0 31.966,-6.641 43.555,-19.922c11.589,-13.281 17.383,-33.529 17.383,-60.742c0,-25.651 -5.827,-45.085 -17.48,-58.301c-11.654,-13.216 -26.139,-19.824 -43.457,-19.824c-17.578,0 -32.161,6.576 -43.75,19.727c-11.589,13.151 -17.383,33.008 -17.383,59.57Z" style="fill:#202020;fill-rule:nonzero;"/><path d="M9348.382,7053.254l0,-207.422l31.641,0l0,29.492c15.234,-22.786 37.24,-34.18 66.016,-34.18c12.5,0 23.991,2.246 34.473,6.738c10.482,4.492 18.327,10.384 23.535,17.676c5.208,7.292 8.854,15.951 10.938,25.977c1.302,6.51 1.953,17.904 1.953,34.18l0,127.539l-35.156,0l0,-126.172c0,-14.323 -1.367,-25.033 -4.102,-32.129c-2.734,-7.096 -7.585,-12.76 -14.551,-16.992c-6.966,-4.232 -15.137,-6.348 -24.512,-6.348c-14.974,0 -27.897,4.753 -38.77,14.258c-10.872,9.505 -16.309,27.539 -16.309,54.102l0,113.281l-35.156,0Z" style="fill:#202020;fill-rule:nonzero;"/><path d="M9681.976,7132.746l0,-286.914l32.031,0l0,26.953c7.552,-10.547 16.081,-18.457 25.586,-23.73c9.505,-5.273 21.029,-7.91 34.57,-7.91c17.708,0 33.333,4.557 46.875,13.672c13.542,9.115 23.763,21.973 30.664,38.574c6.901,16.602 10.352,34.798 10.352,54.59c0,21.224 -3.809,40.332 -11.426,57.324c-7.617,16.992 -18.685,30.013 -33.203,39.062c-14.518,9.049 -29.785,13.574 -45.801,13.574c-11.719,0 -22.233,-2.474 -31.543,-7.422c-9.31,-4.948 -16.96,-11.198 -22.949,-18.75l0,100.977l-35.156,0Zm31.836,-182.031c0,26.693 5.404,46.419 16.211,59.18c10.807,12.76 23.893,19.141 39.258,19.141c15.625,0 29.004,-6.608 40.137,-19.824c11.133,-13.216 16.699,-33.691 16.699,-61.426c0,-26.432 -5.436,-46.224 -16.309,-59.375c-10.872,-13.151 -23.861,-19.727 -38.965,-19.727c-14.974,0 -28.223,6.999 -39.746,20.996c-11.523,13.997 -17.285,34.342 -17.285,61.035Z" style="fill:#202020;fill-rule:nonzero;"/><path d="M9891.351,6949.543c0,-38.411 10.677,-66.862 32.031,-85.352c17.839,-15.365 39.583,-23.047 65.234,-23.047c28.516,0 51.823,9.342 69.922,28.027c18.099,18.685 27.148,44.499 27.148,77.441c0,26.693 -4.004,47.689 -12.012,62.988c-8.008,15.299 -19.661,27.181 -34.961,35.645c-15.299,8.464 -31.999,12.695 -50.098,12.695c-29.036,0 -52.507,-9.31 -70.41,-27.93c-17.904,-18.62 -26.855,-45.443 -26.855,-80.469Zm36.133,0c0,26.562 5.794,46.452 17.383,59.668c11.589,13.216 26.172,19.824 43.75,19.824c17.448,0 31.966,-6.641 43.555,-19.922c11.589,-13.281 17.383,-33.529 17.383,-60.742c0,-25.651 -5.827,-45.085 -17.48,-58.301c-11.654,-13.216 -26.139,-19.824 -43.457,-19.824c-17.578,0 -32.161,6.576 -43.75,19.727c-11.589,13.151 -17.383,33.008 -17.383,59.57Z" style="fill:#202020;fill-rule:nonzero;"/><path d="M10126.507,7053.254l0,-207.422l31.641,0l0,31.445c8.073,-14.714 15.527,-24.414 22.363,-29.102c6.836,-4.688 14.355,-7.031 22.559,-7.031c11.849,0 23.893,3.776 36.133,11.328l-12.109,32.617c-8.594,-5.078 -17.188,-7.617 -25.781,-7.617c-7.682,0 -14.583,2.311 -20.703,6.934c-6.12,4.622 -10.482,11.035 -13.086,19.238c-3.906,12.5 -5.859,26.172 -5.859,41.016l0,108.594l-35.156,0Z" style="fill:#202020;fill-rule:nonzero;"/><path d="M10336.859,7021.809l5.078,31.055c-9.896,2.083 -18.75,3.125 -26.562,3.125c-12.76,0 -22.656,-2.018 -29.688,-6.055c-7.031,-4.036 -11.979,-9.342 -14.844,-15.918c-2.865,-6.576 -4.297,-20.41 -4.297,-41.504l0,-119.336l-25.781,0l0,-27.344l25.781,0l0,-51.367l34.961,-21.094l0,72.461l35.352,0l0,27.344l-35.352,0l0,121.289c0,10.026 0.618,16.471 1.855,19.336c1.237,2.865 3.255,5.143 6.055,6.836c2.799,1.693 6.803,2.539 12.012,2.539c3.906,0 9.049,-0.456 15.43,-1.367Z" style="fill:#202020;fill-rule:nonzero;"/><path d="M10506.585,7027.668c-13.021,11.068 -25.553,18.88 -37.598,23.438c-12.044,4.557 -24.967,6.836 -38.77,6.836c-22.786,0 -40.299,-5.566 -52.539,-16.699c-12.24,-11.133 -18.359,-25.358 -18.359,-42.676c0,-10.156 2.311,-19.434 6.934,-27.832c4.622,-8.398 10.677,-15.137 18.164,-20.215c7.487,-5.078 15.918,-8.919 25.293,-11.523c6.901,-1.823 17.318,-3.581 31.25,-5.273c28.385,-3.385 49.284,-7.422 62.695,-12.109c0.13,-4.818 0.195,-7.878 0.195,-9.18c0,-14.323 -3.32,-24.414 -9.961,-30.273c-8.984,-7.943 -22.331,-11.914 -40.039,-11.914c-16.536,0 -28.743,2.897 -36.621,8.691c-7.878,5.794 -13.704,16.048 -17.48,30.762l-34.375,-4.688c3.125,-14.714 8.268,-26.595 15.43,-35.645c7.161,-9.049 17.513,-16.016 31.055,-20.898c13.542,-4.883 29.232,-7.324 47.07,-7.324c17.708,0 32.096,2.083 43.164,6.25c11.068,4.167 19.206,9.408 24.414,15.723c5.208,6.315 8.854,14.29 10.938,23.926c1.172,5.99 1.758,16.797 1.758,32.422l0,46.875c0,32.682 0.749,53.353 2.246,62.012c1.497,8.659 4.46,16.96 8.887,24.902l-36.719,0c-3.646,-7.292 -5.99,-15.82 -7.031,-25.586Zm-2.93,-78.516c-12.76,5.208 -31.901,9.635 -57.422,13.281c-14.453,2.083 -24.674,4.427 -30.664,7.031c-5.99,2.604 -10.612,6.413 -13.867,11.426c-3.255,5.013 -4.883,10.579 -4.883,16.699c0,9.375 3.548,17.188 10.645,23.438c7.096,6.25 17.48,9.375 31.152,9.375c13.542,0 25.586,-2.962 36.133,-8.887c10.547,-5.924 18.294,-14.03 23.242,-24.316c3.776,-7.943 5.664,-19.661 5.664,-35.156l0,-12.891Z" style="fill:#202020;fill-rule:nonzero;"/><rect x="10592.913" y="6766.926" width="35.156" height="286.328" style="fill:#202020;fill-rule:nonzero;"/></g></g></g></svg>